<svg width="16" height="16" viewBox="0 0 16 16" fill="none" xmlns="http://www.w3.org/2000/svg">
<path d="M12 8C12 10.2091 9.98528 12 7.5 12C5.01472 12 3 10.2091 3 8C3 5.79086 5.01472 4 7.5 4C9.98528 4 12 5.79086 12 8Z" fill="#878787"/>
<path d="M9 11C9 13.2091 6.98528 15 4.5 15C2.01472 15 0 13.2091 0 11C0 8.79086 2.01472 7 4.5 7C6.98528 7 9 8.79086 9 11Z" fill="#878787"/>
<path d="M16 11C16 13.2091 13.9853 15 11.5 15C9.01472 15 7 13.2091 7 11C7 8.79086 9.01472 7 11.5 7C13.9853 7 16 8.79086 16 11Z" fill="#878787"/>
<path d="M4 11.5078H6.03922V16H4V11.5078Z" fill="white"/>
<path d="M6.03922 11.5078V16H4V11.5078H6.03922ZM4.12745 15.8717H5.91177V11.6361H4.12745V15.8717Z" fill="white"/>
<path d="M8.07843 7.78567H10.5V16H8.07843V7.78567Z" fill="white"/>
<path d="M10.5 7.78567V16H8.07843V7.78567H10.5ZM8.20588 15.8717H10.3725V7.91402H8.20588V15.8717Z" fill="white"/>
<path d="M6.03922 9.83926H8.07843V16H6.03922V9.83926Z" fill="white"/>
<path d="M8.07843 9.83926V16H6.03922V9.83926H8.07843ZM6.16667 15.8717H7.95098V9.9676H6.16667V15.8717Z" fill="white"/>
<path d="M4 7.78567H4.38236V13.9464H4V7.78567Z" fill="white"/>
<path d="M10.1176 7.40063L10.1176 7.78567L4 7.78567V7.40063L10.1176 7.40063Z" fill="white"/>
<path d="M10.1176 9.45421L10.1176 9.83926H4.00001L4 9.45421H10.1176Z" fill="white"/>
<path d="M10.1176 5.34705V5.73209H6.03922V5.34705H10.1176Z" fill="white"/>
<path d="M6.03922 5.73209H6.42157V13.9464H6.03922V5.73209Z" fill="white"/>
<path d="M10.5 3.29346L10.5 3.67851L8.07844 3.67851L8.07843 3.29346H10.5Z" fill="white"/>
<path d="M10.1176 3.67851L10.5 3.67851L10.5 11.8928H10.1176V3.67851Z" fill="white"/>
<path d="M8.07844 3.67851L8.46078 3.67851V11.8928H8.07843L8.07844 3.67851Z" fill="white"/>
<path d="M8.71568 1.11153L6.32598 2.22307V0L8.71568 1.11153Z" fill="#878787"/>
<path d="M6.32598 2.22307V0L8.71568 1.11153L6.32598 2.22307ZM6.58088 0.401353V1.82171L8.10793 1.11153L6.58088 0.401353Z" fill="#878787"/>
</svg>
