<svg width="17" height="16" viewBox="0 0 17 16" fill="none" xmlns="http://www.w3.org/2000/svg">
<path d="M10 9C10 11.7614 7.76142 14 5 14C2.23858 14 0 11.7614 0 9C0 6.23858 2.23858 4 5 4C7.76142 4 10 6.23858 10 9Z" fill="#878787"/>
<path d="M12.4648 5.46484C12.6601 5.26958 12.9766 5.26958 13.1719 5.46484L16.3535 8.64648C16.5488 8.84175 16.5488 9.15825 16.3535 9.35352L13.1719 12.5352C12.9766 12.7304 12.6601 12.7304 12.4648 12.5352C12.2696 12.3399 12.2696 12.0234 12.4648 11.8281L14.793 9.5H4V8.5H14.793L12.4648 6.17188C12.2696 5.97661 12.2696 5.66011 12.4648 5.46484Z" fill="#878787"/>
<path d="M4 11.5078H6.03922V16H4V11.5078Z" fill="white"/>
<path d="M6.03922 11.5078V16H4V11.5078H6.03922ZM4.12745 15.8717H5.91177V11.6361H4.12745V15.8717Z" fill="white"/>
<path d="M8.07843 7.78567H10.5V16H8.07843V7.78567Z" fill="white"/>
<path d="M10.5 7.78567V16H8.07843V7.78567H10.5ZM8.20588 15.8717H10.3725V7.91402H8.20588V15.8717Z" fill="white"/>
<path d="M6.03922 9.83926H8.07843V16H6.03922V9.83926Z" fill="white"/>
<path d="M8.07843 9.83926V16H6.03922V9.83926H8.07843ZM6.16667 15.8717H7.95098V9.9676H6.16667V15.8717Z" fill="white"/>
<path d="M4 7.78567H4.38236V13.9464H4V7.78567Z" fill="white"/>
<path d="M10.1176 7.40063L10.1176 7.78567L4 7.78567V7.40063L10.1176 7.40063Z" fill="white"/>
<path d="M10.1176 9.45421L10.1176 9.83926H4.00001L4 9.45421H10.1176Z" fill="white"/>
<path d="M10.1176 5.34705V5.73209H6.03922V5.34705H10.1176Z" fill="white"/>
<path d="M6.03922 5.73209H6.42157V13.9464H6.03922V5.73209Z" fill="white"/>
<path d="M10.5 3.29346L10.5 3.67851L8.07844 3.67851L8.07843 3.29346H10.5Z" fill="white"/>
<path d="M10.1176 3.67851L10.5 3.67851L10.5 11.8928H10.1176V3.67851Z" fill="white"/>
<path d="M8.07844 3.67851L8.46078 3.67851V11.8928H8.07843L8.07844 3.67851Z" fill="white"/>
<path d="M8.71568 1.11153L6.32598 2.22307V0L8.71568 1.11153Z" fill="#878787"/>
<path d="M6.32598 2.22307V0L8.71568 1.11153L6.32598 2.22307ZM6.58088 0.401353V1.82171L8.10793 1.11153L6.58088 0.401353Z" fill="#878787"/>
</svg>
