<svg width="16" height="16" viewBox="0 0 16 16" fill="none" xmlns="http://www.w3.org/2000/svg">
<path d="M5 11.5078H7.03922V16H5V11.5078Z" fill="#AFAFAF"/>
<path d="M7.03922 11.5078V16H5V11.5078H7.03922ZM5.12745 15.8717H6.91177V11.6361H5.12745V15.8717Z" fill="#AFAFAF"/>
<path d="M9.07843 7.78567H11.5V16H9.07843V7.78567Z" fill="#AFAFAF"/>
<path d="M11.5 7.78567V16H9.07843V7.78567H11.5ZM9.20588 15.8717H11.3725V7.91402H9.20588V15.8717Z" fill="#AFAFAF"/>
<path d="M7.03922 9.83926H9.07843V16H7.03922V9.83926Z" fill="#AFAFAF"/>
<path d="M9.07843 9.83926V16H7.03922V9.83926H9.07843ZM7.16667 15.8717H8.95098V9.9676H7.16667V15.8717Z" fill="#AFAFAF"/>
<path d="M5 7.78567H5.38236V13.9464H5V7.78567Z" fill="#AFAFAF"/>
<path d="M11.1176 7.40063L11.1176 7.78567L5 7.78567V7.40063L11.1176 7.40063Z" fill="#AFAFAF"/>
<path d="M11.1176 9.45421L11.1176 9.83926H5.00001L5 9.45421H11.1176Z" fill="#AFAFAF"/>
<path d="M11.1176 5.34705V5.73209H7.03922V5.34705H11.1176Z" fill="#AFAFAF"/>
<path d="M7.03922 5.73209H7.42157V13.9464H7.03922V5.73209Z" fill="#AFAFAF"/>
<path d="M11.5 3.29346L11.5 3.67851L9.07844 3.67851L9.07843 3.29346H11.5Z" fill="#AFAFAF"/>
<path d="M11.1176 3.67851L11.5 3.67851L11.5 11.8928H11.1176V3.67851Z" fill="#AFAFAF"/>
<path d="M9.07844 3.67851L9.46078 3.67851V11.8928H9.07843L9.07844 3.67851Z" fill="#AFAFAF"/>
<path d="M9.71568 1.11153L7.32598 2.22307V0L9.71568 1.11153Z" fill="#737373"/>
<path d="M7.32598 2.22307V0L9.71568 1.11153L7.32598 2.22307ZM7.58088 0.401353V1.82171L9.10793 1.11153L7.58088 0.401353Z" fill="#737373"/>
</svg>
